Coordinates
version=1
nRows=38
nColumns=12
inDegrees=yes

Units are S.I. units (second, meters, Newtons, ...)
Angles are in degrees

endheader
time	SC_y	SC_z	SC_x	AC_y	AC_z	AC_x	GH_y	GH_z	GH_yy	EL_x	PS_y
       0.0              -26.27          21.58          15.59          66.91         -12.09         -17.23         -121.6           9.36          38.37          71.93          20.57
   0.01476              -26.27          21.58          15.58          66.91         -12.09         -17.23         -121.6          9.368          38.38          71.93          20.56
   0.02952              -26.28          21.58          15.58          66.91         -12.09         -17.23         -121.6          9.376           38.4          71.92          20.56
   0.04427              -26.28          21.58          15.58          66.91         -12.09         -17.23         -121.5          9.384          38.41          71.92          20.56
   0.05903              -26.28          21.58          15.58          66.91         -12.09         -17.23         -121.5          9.393          38.43          71.91          20.56
   0.07379              -26.28          21.58          15.58           66.9         -12.09         -17.23         -121.5          9.403          38.44          71.91          20.56
   0.08855              -26.29          21.57          15.57           66.9         -12.09         -17.23         -121.5          9.413          38.46           71.9          20.56
    0.1033              -26.29          21.57          15.57           66.9          -12.1         -17.23         -121.5          9.424          38.48           71.9          20.56
    0.1181              -26.29          21.57          15.57           66.9          -12.1         -17.23         -121.5          9.436           38.5          71.89          20.56
    0.1328               -26.3          21.57          15.56           66.9          -12.1         -17.23         -121.5          9.449          38.52          71.89          20.55
    0.1476               -26.3          21.57          15.56           66.9          -12.1         -17.23         -121.4          9.463          38.55          71.88          20.55
    0.1623              -26.31          21.57          15.56          66.89          -12.1         -17.23         -121.4          9.477          38.57          71.87          20.55
    0.1771              -26.31          21.56          15.55          66.89         -12.11         -17.23         -121.4          9.493           38.6          71.87          20.55
    0.1919              -26.32          21.56          15.55          66.89         -12.11         -17.23         -121.4           9.51          38.63          71.86          20.55
    0.2066              -26.32          21.56          15.54          66.89         -12.11         -17.23         -121.3          9.529          38.66          71.85          20.55
    0.2214              -26.33          21.56          15.54          66.88         -12.11         -17.23         -121.3          9.549          38.69          71.84          20.54
    0.2361              -26.33          21.55          15.53          66.88         -12.12         -17.23         -121.3          9.571          38.73          71.83          20.54
    0.2509              -26.34          21.55          15.53          66.88         -12.12         -17.23         -121.2          9.595          38.77          71.82          20.54
    0.2656              -26.35          21.55          15.52          66.87         -12.12         -17.23         -121.2          9.621          38.82          71.81          20.53
    0.2804              -26.36          21.54          15.51          66.87         -12.13         -17.23         -121.2          9.649          38.87          71.79          20.53
    0.2952              -26.37          21.54           15.5          66.86         -12.13         -17.23         -121.1           9.68          38.92          71.78          20.53
    0.3099              -26.38          21.53           15.5          66.86         -12.14         -17.23         -121.1          9.715          38.98          71.76          20.52
    0.3247              -26.39          21.53          15.49          66.85         -12.14         -17.23         -121.0          9.753          39.04          71.74          20.52
    0.3394               -26.4          21.52          15.47          66.85         -12.15         -17.23         -120.9          9.795          39.11          71.72          20.51
    0.3542              -26.41          21.52          15.46          66.84         -12.16         -17.23         -120.9          9.841          39.19           71.7          20.51
    0.3689              -26.43          21.51          15.45          66.83         -12.16         -17.23         -120.8          9.893          39.28          71.68           20.5
    0.3837              -26.44           21.5          15.43          66.82         -12.17         -17.23         -120.7          9.952          39.38          71.65          20.49
    0.3985              -26.46          21.49          15.42          66.81         -12.18         -17.23         -120.6          10.02           39.5          71.62          20.49
    0.4132              -26.49          21.48           15.4           66.8         -12.19         -17.23         -120.5          10.09          39.62          71.58          20.48
     0.428              -26.51          21.47          15.38          66.79         -12.21         -17.23         -120.4          10.18          39.77          71.54          20.47
    0.4427              -26.54          21.46          15.35          66.77         -12.22         -17.22         -120.2          10.27          39.93           71.5          20.46
    0.4575              -26.57          21.45          15.32          66.76         -12.24         -17.22         -120.1          10.38          40.12          71.44          20.44
    0.4723              -26.61          21.43          15.29          66.74         -12.26         -17.22         -119.9          10.51          40.34          71.38          20.43
     0.487              -26.65          21.41          15.25          66.72         -12.28         -17.22         -119.7          10.66          40.59          71.31          20.41
    0.5018               -26.7          21.39          15.21          66.69          -12.3         -17.22         -119.4          10.83          40.89          71.23          20.39
    0.5165              -26.76          21.36          15.16          66.66         -12.33         -17.22         -119.1          11.04          41.24          71.13          20.36
    0.5313              -26.83          21.33          15.09          66.62         -12.37         -17.22         -118.8          11.28          41.65          71.02          20.33
     0.546              -26.92          21.29          15.02          66.58         -12.41         -17.21         -118.3          11.57          42.15          70.88           20.3
